<svg xmlns="http://www.w3.org/2000/svg" width="2048" height="2048"><path d="M975.5 491.114c-176.04 7.113-316.901 53.492-419 137.956-14.188 11.737-45.306 43.272-56.671 57.43-44.487 55.418-72.223 115.299-84.301 182-5.995 33.11-5.819 28.597-6.268 161-.43 127.091-.106 141.473 3.765 166.845 5.594 36.674 14.388 64.562 30.952 98.155 17.157 34.798 37.542 63.022 66.501 92.072 16.743 16.795 26.876 25.683 44.636 39.151 89.416 67.81 218.663 111.103 369.386 123.732 62.365 5.225 136.635 5.225 199 0 150.723-12.629 279.97-55.922 369.386-123.732 17.76-13.468 27.893-22.356 44.636-39.151 28.959-29.05 49.344-57.274 66.501-92.072 16.564-33.593 25.358-61.481 30.952-98.155 3.866-25.344 4.192-39.776 3.757-166.345-.448-130.276-.403-129.04-5.774-158.695-22.976-126.856-106.327-233.845-234.378-300.844-112.211-58.712-257.841-86.024-423.08-79.347M266.392 902.895c-28.006 6.887-49.848 27.864-58.598 56.276l-2.257 7.329-.322 114c-.23 81.446.003 116.271.816 121.952 4.384 30.645 25.773 55.503 56.469 65.627 6.544 2.159 8.936 2.334 36.75 2.693l29.75.384v-148.914c0-81.903-.298-165.189-.662-185.078L327.676 901l-27.088.074c-22.227.06-28.364.387-34.196 1.821m1453.273 27.278c-.364 16.13-.662 98.556-.663 183.168l-.002 153.841 28.75-.433c26.057-.393 29.452-.642 36.25-2.66 30.572-9.075 53.657-35.194 57.968-65.589.808-5.697 1.043-40.101.813-119.5-.363-125.731.25-115.95-8.371-133.5-9.739-19.825-25.565-33.71-46.91-41.159-7.944-2.772-8.207-2.794-37.587-3.143l-29.587-.352-.661 29.327M329 1538.32v62.186l6.25 3.945c62.482 39.442 130.651 73.851 205.886 103.923 139.369 55.707 277.971 86.749 422.864 94.708 26.386 1.45 93.614 1.45 120 0 83.342-4.578 160.419-16.106 241.5-36.119 137.353-33.903 275.066-91.695 387.25-162.512l6.25-3.945v-124.372l-13.75 8.768c-74.025 47.205-175.382 94.118-275.75 127.632-270.513 90.325-539.06 90.499-809.5.524-100.502-33.437-203.043-80.835-277.25-128.156l-13.75-8.768v62.186" fill="undefined" fill-rule="evenodd"/></svg>