<svg xmlns="http://www.w3.org/2000/svg" width="1240" height="1240"><path d="M551.917 89.119A1203371.14 1203371.14 0 00295.5 272.497c-62.15 44.457-128.843 92.119-148.207 105.916L112.085 403.5l-.042 59.75c-.024 32.863.166 59.75.422 59.75.364 0 124.056-88.28 179.535-128.136 5.775-4.149 12.75-9.118 15.5-11.042 2.75-1.925 18.725-13.333 35.5-25.353 16.775-12.019 82.475-59.027 146-104.462 63.525-45.435 118.713-84.948 122.64-87.808 3.927-2.859 7.625-5.199 8.219-5.199.595 0 45.532 31.799 99.861 70.665L873 341.32c29.975 21.445 57.753 41.283 61.73 44.085 3.976 2.802 48.708 34.795 99.403 71.095 50.695 36.3 92.554 66.15 93.02 66.333.466.184.828-26.591.804-59.5l-.042-59.833-35.708-25.447c-36.113-25.736-124.146-88.669-322.707-230.695-59.95-42.881-115.075-82.297-122.5-87.592a5652.528 5652.528 0 01-19.099-13.671c-3.08-2.223-6.267-4.298-7.083-4.611-.93-.357-26.667 17.436-68.901 47.635M586.5 273.883c-18.15 13.046-75.525 54.043-127.5 91.104-51.975 37.061-103.05 73.522-113.5 81.025-10.45 7.503-48.812 34.924-85.25 60.936L194 554.243V1199h852V554.226l-71.25-50.828c-39.187-27.955-77.55-55.376-85.25-60.934-7.7-5.559-45.5-32.549-84-59.978-38.5-27.428-80.125-57.119-92.5-65.979-55.058-39.419-93.091-66.501-93.287-66.426-.117.044-15.063 10.755-33.213 23.802m21.558 266.239c-54.457 6.309-95.028 57.869-88.064 111.916 5.465 42.41 35.237 75.755 77.006 86.248 6.733 1.691 11.514 2.135 23 2.135s16.267-.444 23-2.135c39.442-9.908 67.592-39.406 76.142-79.786.704-3.324 1.231-12.022 1.181-19.5-.074-11.087-.548-15.248-2.656-23.277-10.863-41.394-44.861-70.916-87.167-75.691-10.091-1.139-11.901-1.132-22.442.09M564 777.409c0 .51 9.525 21.897 23.422 52.591a78422.74 78422.74 0 0121.359 47.227c5.895 13.049 10.944 23.721 11.219 23.715.275-.006 5.318-10.683 11.206-23.727a53830.32 53830.32 0 0123.392-51.715C668.182 795.515 676 777.929 676 777.355c0-.195-25.2-.355-56-.355s-56 .184-56 .409m-62.5 6.048c-39.085 7.126-67.385 27.41-78.89 56.543-6.103 15.454-5.964 13.562-6.349 86.25l-.353 66.75h99.546c54.75 0 99.546-.29 99.546-.644 0-.73-4.137-9.862-20.998-46.356-43.584-94.33-72.429-157.032-73.717-160.25-1.471-3.673-1.607-3.748-6.644-3.66-2.827.05-8.291.665-12.141 1.367m218.269 2.158c-1.334 3.332-29.754 65.119-73.771 160.385C629.137 982.494 625 991.626 625 992.356c0 .354 44.796.644 99.546.644h99.546l-.359-66.75c-.395-73.354-.254-71.538-6.822-87.465-8.434-20.454-27.035-37.943-50.356-47.347-10.963-4.421-26.692-8.265-37.142-9.079l-8.088-.629-1.556 3.885" fill="undefined" fill-rule="evenodd"/></svg>