<svg xmlns="http://www.w3.org/2000/svg" width="2048" height="2048"><path d="M990 244.063c-254.96 8.066-448.624 115.68-559.504 310.904C372.959 656.271 338.2 782.004 330.965 915c-1.884 34.644-2.68 37.525-2.831 10.25L328 901h-26.553c-30.247 0-35.706.778-49.12 7.005-22.553 10.468-37.173 27.265-44.533 51.166l-2.257 7.329-.322 114c-.23 81.446.003 116.271.816 121.952 4.384 30.645 25.773 55.503 56.469 65.627 6.544 2.159 8.936 2.334 36.75 2.693l29.75.384v329.35l6.25 3.945c62.482 39.442 130.651 73.851 205.886 103.923 139.369 55.707 277.971 86.749 422.864 94.708 26.386 1.45 93.614 1.45 120 0 83.342-4.578 160.419-16.106 241.5-36.119 137.353-33.903 275.066-91.695 387.25-162.512l6.25-3.945v-333.324l28.75-.433c26.057-.393 29.452-.642 36.25-2.66 30.572-9.075 53.657-35.194 57.968-65.589.808-5.697 1.043-40.101.813-119.5-.363-125.731.25-115.95-8.371-133.5-9.739-19.825-25.565-33.71-46.91-41.159-7.948-2.774-8.193-2.794-37.75-3.145l-29.75-.352v19.744c0 10.86-.233 19.512-.518 19.227-.286-.285-.97-9.248-1.521-19.917-6.673-129.188-33.574-238.928-82.585-336.898-29.781-59.532-64.067-108.125-107.866-152.881-106.027-108.341-246.985-169.239-425.005-183.612-17.985-1.452-73.233-3.644-84.005-3.332-2.75.08-15.575.479-28.5.888" fill="undefined" fill-rule="evenodd"/></svg>