<svg xmlns="http://www.w3.org/2000/svg" width="550" height="550"><path d="M257 154.028c-59.204 3.824-99.79 25.673-117.55 63.281-6.84 14.484-6.95 15.472-6.95 62.691v42.5l3.189 8.273c11.081 28.753 38.358 48.52 80.811 58.565 36.089 8.54 85.597 8.191 120.706-.85 27.042-6.963 47.653-18.012 61.594-33.019 11.473-12.349 17.195-24.374 19.021-39.969.551-4.708.635-22.61.203-43.5-.805-38.975-1.106-41.179-7.478-54.691-14.35-30.43-43.859-50.717-86.088-59.183-19.617-3.933-45.589-5.51-67.458-4.098M66.88 244.794c-3.894 2.034-6.169 4.121-8.365 7.671l-3.015 4.877V325.5l2.805 4.772c1.543 2.625 4.648 5.992 6.901 7.483 3.552 2.351 5.4 2.778 13.945 3.227l9.851.518-.001-36.092c-.001-19.85-.296-42.238-.656-49.75L87.69 242h-7.731c-6.52 0-8.568.437-13.079 2.794m394.774 9.363c-.36 6.686-.654 28.849-.655 49.25V340.5l9.275-.523c11.538-.651 17.171-3.475 21.449-10.754l2.777-4.723V257.343l-3.015-4.877C487.047 245.289 480.309 242 470.039 242h-7.732l-.653 12.157M88 412.23c0 19.059-1.082 16.918 12.5 24.726 43.319 24.902 96.791 41.736 146.5 46.122 19.222 1.696 56.497.669 74.5-2.054 44.756-6.768 90.444-22.489 128-44.045 13.521-7.76 12.597-5.902 12.276-24.689l-.276-16.104-8 4.968c-17.636 10.951-52.77 26.512-76.055 33.685C340.697 446.16 312.38 450.485 275 450.485c-29.324 0-44.333-1.586-72-7.607-37.972-8.265-84.484-27.035-112.25-45.299L88 395.77v16.46" fill="undefined" fill-rule="evenodd"/></svg>