<svg version="1.1" xmlns="http://www.w3.org/2000/svg" xmlns:xlink="http://www.w3.org/1999/xlink" viewBox="0 0 172 172"><g fill="none" fill-rule="nonzero" stroke="none" stroke-width="1" stroke-linecap="butt" stroke-linejoin="miter" stroke-miterlimit="10" stroke-dasharray="" stroke-dashoffset="0" font-family="none" font-weight="none" font-size="none" text-anchor="none" style="mix-blend-mode: normal"><path d="M0,172v-172h172v172z" fill="none"></path><g><path d="M93.16667,103.91667h7.16667v50.16667h-7.16667z" fill="#455a64"></path><path d="M121.83333,150.5h-7.16667l-21.5,-28.66667h7.16667z" fill="#455a64"></path><path d="M71.66667,150.5h7.16667l21.5,-28.66667h-7.16667z" fill="#455a64"></path><path d="M96.75,107.5v0c-6.09167,0 -10.75,-4.65833 -10.75,-10.75v-14.33333h21.5v14.33333c0,6.09167 -4.65833,10.75 -10.75,10.75z" fill="#607d8b"></path><path d="M37.44493,110.25067l-6.38231,3.25995l-13.0398,-25.52923l6.38231,-3.25995z" fill="#607d8b"></path><path d="M86,114.66667h21.5v7.16667h-21.5z" fill="#607d8b"></path><path d="M129.625,22.80422c-3.52485,1.80042 -2.00372,11.83232 3.39754,22.40687c5.40126,10.57455 12.6373,17.68739 16.16216,15.88697c3.52485,-1.80042 2.00372,-11.83232 -3.39754,-22.40687c-5.40126,-10.57455 -12.6373,-17.68739 -16.16216,-15.88697z" fill="#90caf9"></path><g fill="#455a64"><path d="M154.11276,62.57931l-6.38231,3.25995l-22.81965,-44.67615l6.38231,-3.25995z"></path><path d="M82.17756,95.37171l-6.38231,3.25995l-19.5597,-38.29384l6.38231,-3.25995z"></path><path d="M51.86004,98.88979l-15.95577,8.14987l-9.77985,-19.14692l15.95577,-8.14987z"></path></g><g fill="#027be3"><path d="M146.04873,62.70974l-63.82307,32.5995l-19.5597,-38.29384l63.82307,-32.5995z"></path><path d="M56.61667,100.33333l16.125,-8.24167l-12.9,-25.44167l-16.125,8.24167c-1.79167,1.075 -2.50833,3.225 -1.43333,4.65833l9.675,18.99167c0.71667,2.15 2.86667,2.86667 4.65833,1.79167z"></path></g><path d="M96.75,93.16667c-1.97902,0 -3.58333,1.60431 -3.58333,3.58333c0,1.97902 1.60431,3.58333 3.58333,3.58333c1.97902,0 3.58333,-1.60431 3.58333,-3.58333c0,-1.97902 -1.60431,-3.58333 -3.58333,-3.58333z" fill="#cfd8dc"></path></g></g></svg>