<svg
    xmlns="http://www.w3.org/2000/svg"
    x="0px"
    y="0px"
    width="2048"
    height="2048"
    viewBox="0 0 172 172"
    style=" fill:#000000;">
  <g
      fill="none"
      fill-rule="nonzero"
      stroke="none"
      stroke-width="1"
      stroke-linecap="butt"
      stroke-linejoin="miter"
      stroke-miterlimit="10"
      stroke-dasharray=""
      stroke-dashoffset="0"
      font-family="none"
      font-weight="none"
      font-size="none"
      text-anchor="none"
      style="mix-blend-mode: normal">
    <path
        d="M0,172v-172h172v172z"
        fill="none"></path>
    <g>
      <path
          d="M86,151.21667c-34.04167,0 -58.40833,-17.2 -58.40833,-17.2v-51.6c0,-32.96667 17.2,-61.99167 58.40833,-61.99167c41.20833,0 58.40833,28.30833 58.40833,61.275v52.31667c0,0 -24.36667,17.2 -58.40833,17.2z"
          fill="#64b5f6"></path>
      <path
          d="M27.59167,106.78333h-3.58333c-3.94167,0 -6.80833,-3.225 -6.80833,-6.80833v-17.55833c0,-3.94167 3.225,-6.80833 6.80833,-6.80833h3.58333zM144.40833,75.60833h3.58333c3.94167,0 6.80833,3.225 6.80833,6.80833v17.2c0,3.94167 -3.225,6.80833 -6.80833,6.80833h-3.58333zM27.59167,123.98333v10.39167c0,0 24.725,17.2 58.40833,17.2c33.68333,0 58.40833,-17.2 58.40833,-17.2v-10.39167c0,0 -24.725,17.2 -58.40833,17.2c-33.68333,0 -58.40833,-17.2 -58.40833,-17.2z"
          fill="#027be3"></path>
      <path
          d="M86,127.20833c-29.38333,0 -48.01667,-12.18333 -48.01667,-30.81667v-17.55833c0,-15.76667 12.54167,-34.4 48.01667,-34.4c35.475,0 48.01667,18.63333 48.01667,34.4v17.2c0,18.99167 -18.63333,31.175 -48.01667,31.175z"
          fill="#673ab7"></path>
      <path
          d="M86,48.01667c33.325,0 44.79167,16.84167 44.79167,30.81667v17.2c0,16.48333 -17.2,27.59167 -44.79167,27.59167c-27.59167,0 -44.79167,-11.10833 -44.79167,-27.59167v-17.2c0,-13.975 11.46667,-30.81667 44.79167,-30.81667M86,41.20833c-37.98333,0 -51.6,20.425 -51.6,37.625v17.2c0,20.78333 20.425,34.4 51.6,34.4c31.175,0 51.6,-13.61667 51.6,-34.4v-17.2c0,-18.63333 -16.125,-37.625 -51.6,-37.625z"
          fill="#027be3"></path>
      <path
          d="M86,127.20833c-29.38333,0 -48.01667,-12.18333 -48.01667,-30.81667v-17.55833c0,-15.76667 12.54167,-34.4 48.01667,-34.4c35.475,0 48.01667,18.63333 48.01667,34.4v17.2c0,18.99167 -18.63333,31.175 -48.01667,31.175z"
          fill="#673ab7"></path>
      <path
          d="M86,48.01667c33.325,0 44.79167,16.84167 44.79167,30.81667v17.2c0,16.48333 -17.2,27.59167 -44.79167,27.59167c-27.59167,0 -44.79167,-11.10833 -44.79167,-27.59167v-17.2c0,-13.975 11.46667,-30.81667 44.79167,-30.81667M86,41.20833c-37.98333,0 -51.6,20.425 -51.6,37.625v17.2c0,20.78333 20.425,34.4 51.6,34.4c31.175,0 51.6,-13.61667 51.6,-34.4v-17.2c0,-18.63333 -16.125,-37.625 -51.6,-37.625z"
          fill="#027be3"></path>
      <path
          d="M130.79167,96.39167c0,16.48333 -17.2,27.59167 -44.79167,27.59167c-27.59167,0 -44.79167,-11.10833 -44.79167,-27.59167v-17.55833c0,-13.975 11.46667,-30.81667 44.79167,-30.81667c33.325,0 44.79167,16.84167 44.79167,30.81667z"
          fill="#673ab7"></path>
      <path
          d="M130.79167,92.80833c0,0 0,4.65833 -2.86667,7.525c-1.79167,1.79167 -4.3,2.50833 -7.525,2.50833h-14.69167c-1.075,-2.15 -3.225,-3.58333 -6.09167,-3.58333c-3.94167,0 -6.80833,3.225 -6.80833,6.80833c0,3.94167 3.225,6.80833 6.80833,6.80833c2.50833,0 4.65833,-1.43333 6.09167,-3.58333h14.69167c5.01667,0 9.31667,-1.43333 12.18333,-4.65833c5.01667,-5.01667 5.01667,-12.18333 5.01667,-12.54167z"
          fill="#4a148c"></path>
      <path
          d="M55.18333,99.975c-2.15,0 -3.58333,-1.43333 -3.58333,-3.58333v-17.55833c0,-12.9 13.25833,-20.78333 34.4,-20.78333c2.15,0 3.58333,1.43333 3.58333,3.58333c0,2.15 -1.43333,3.58333 -3.58333,3.58333c-16.48333,0 -27.23333,5.375 -27.23333,13.61667v17.2c0,2.15 -1.79167,3.94167 -3.58333,3.94167z"
          fill="#b388ff"></path>
      <path
          d="M86,48.01667c33.325,0 44.79167,16.84167 44.79167,30.81667v17.2c0,16.48333 -17.2,27.59167 -44.79167,27.59167c-27.59167,0 -44.79167,-11.10833 -44.79167,-27.59167v-17.2c0,-13.975 11.46667,-30.81667 44.79167,-30.81667M86,41.20833c-37.98333,0 -51.6,20.425 -51.6,37.625v17.2c0,20.78333 20.425,34.4 51.6,34.4c31.175,0 51.6,-13.61667 51.6,-34.4v-17.2c0,-18.63333 -16.125,-37.625 -51.6,-37.625z"
          fill="#027be3"></path>
    </g>
  </g>
</svg>
